<svg width="30" height="30" viewBox="0 0 30 30" fill="none" xmlns="http://www.w3.org/2000/svg">
<path d="M20.7761 1.86758C20.6424 1.75112 20.487 1.66225 20.3188 1.60609C20.1506 1.54993 19.973 1.52759 19.7961 1.54036L9.02305 2.30231C8.84616 2.31457 8.67344 2.36169 8.51484 2.44096C8.35623 2.52023 8.21487 2.63009 8.09889 2.76422L1.84193 9.97362C1.72547 10.1073 1.6366 10.2627 1.58044 10.4309C1.52428 10.5991 1.50194 10.7767 1.51471 10.9536L2.27666 21.7267C2.302 22.0849 2.46759 22.4169 2.73856 22.6508L9.94797 28.9078C10.0817 29.0243 10.2371 29.1131 10.4053 29.1693C10.5735 29.2255 10.7511 29.2478 10.9279 29.235L21.701 28.4731C22.0592 28.4477 22.3913 28.2822 22.6252 28.0112L28.8822 20.8018C28.9986 20.6681 29.0875 20.5126 29.1436 20.3445C29.1998 20.1763 29.2221 19.9986 29.2094 19.8218L28.4474 9.0487C28.4352 8.87181 28.3881 8.69909 28.3088 8.54049C28.2295 8.38188 28.1196 8.24052 27.9855 8.12454L20.7761 1.86758ZM17.1849 22.0256L14.4916 22.2161L14.3011 19.5228L16.9944 19.3324L17.1849 22.0256ZM16.8039 16.6391L14.1107 16.8296L13.5392 8.74976L16.2325 8.55927L16.8039 16.6391Z" fill="white"/>
</svg>
