<svg width="22" height="22" viewBox="0 0 22 22" fill="none" xmlns="http://www.w3.org/2000/svg">
<path fill-rule="evenodd" clip-rule="evenodd" d="M11 20.5C16.2467 20.5 20.5 16.2467 20.5 11C20.5 5.75329 16.2467 1.5 11 1.5C5.75329 1.5 1.5 5.75329 1.5 11C1.5 16.2467 5.75329 20.5 11 20.5ZM11 22C17.0751 22 22 17.0751 22 11C22 4.92487 17.0751 0 11 0C4.92487 0 0 4.92487 0 11C0 17.0751 4.92487 22 11 22Z" fill="#74F94C"/>
<path fill-rule="evenodd" clip-rule="evenodd" d="M8.43406 7H14.3434C14.706 7 15 7.29397 15 7.65659V13.5659C15 13.9286 14.706 14.2225 14.3434 14.2225C13.9808 14.2225 13.6868 13.9286 13.6868 13.5659V9.24175L6.92856 16L6 15.0714L12.7582 8.31319H8.43406C8.07144 8.31319 7.77747 8.01922 7.77747 7.65659C7.77747 7.29397 8.07144 7 8.43406 7Z" fill="#74F94C"/>
</svg>
