<svg width="22" height="22" viewBox="0 0 22 22" xmlns="http://www.w3.org/2000/svg">
<path fill-rule="evenodd" clip-rule="evenodd" d="M6.46501 0.066C7.63801 0.012 8.01201 0 11 0C13.988 0 14.362 0.013 15.534 0.066C16.706 0.119 17.506 0.306 18.206 0.577C18.939 0.854001 19.604 1.287 20.154 1.847C20.714 2.396 21.146 3.06 21.422 3.794C21.694 4.494 21.88 5.294 21.934 6.46401C21.988 7.63901 22 8.01301 22 11C22 13.988 21.987 14.362 21.934 15.535C21.881 16.705 21.694 17.505 21.422 18.205C21.146 18.9391 20.7133 19.6042 20.154 20.154C19.604 20.714 18.939 21.146 18.206 21.422C17.506 21.694 16.706 21.88 15.536 21.934C14.362 21.988 13.988 22 11 22C8.01201 22 7.63801 21.987 6.46501 21.934C5.295 21.881 4.495 21.694 3.795 21.422C3.06092 21.146 2.39582 20.7133 1.846 20.154C1.28638 19.6047 0.853315 18.9399 0.577 18.206C0.306 17.506 0.12 16.706 0.066 15.536C0.012 14.361 0 13.987 0 11C0 8.01201 0.013 7.63801 0.066 6.46601C0.119 5.294 0.306 4.494 0.577 3.794C0.853724 3.06008 1.28712 2.39532 1.847 1.846C2.39604 1.2865 3.06047 0.853444 3.794 0.577C4.494 0.306 5.294 0.12 6.46401 0.066H6.46501ZM15.445 2.046C14.285 1.993 13.937 1.982 11 1.982C8.06301 1.982 7.71501 1.993 6.55501 2.046C5.482 2.095 4.9 2.274 4.512 2.425C3.999 2.625 3.632 2.862 3.247 3.247C2.88205 3.60205 2.60118 4.03429 2.425 4.512C2.274 4.9 2.095 5.482 2.046 6.55501C1.993 7.71501 1.982 8.06301 1.982 11C1.982 13.937 1.993 14.285 2.046 15.445C2.095 16.518 2.274 17.1 2.425 17.488C2.601 17.965 2.882 18.398 3.247 18.753C3.602 19.118 4.035 19.399 4.512 19.575C4.9 19.726 5.482 19.905 6.55501 19.954C7.71501 20.007 8.06201 20.018 11 20.018C13.938 20.018 14.285 20.007 15.445 19.954C16.518 19.905 17.1 19.726 17.488 19.575C18.001 19.375 18.368 19.138 18.753 18.753C19.118 18.398 19.399 17.965 19.575 17.488C19.726 17.1 19.905 16.518 19.954 15.445C20.007 14.285 20.018 13.937 20.018 11C20.018 8.06301 20.007 7.71501 19.954 6.55501C19.905 5.482 19.726 4.9 19.575 4.512C19.375 3.999 19.138 3.632 18.753 3.247C18.3979 2.88207 17.9657 2.60121 17.488 2.425C17.1 2.274 16.518 2.095 15.445 2.046ZM9.59501 14.391C10.3797 14.7176 11.2534 14.7617 12.0669 14.5157C12.8805 14.2697 13.5834 13.7489 14.0556 13.0423C14.5278 12.3356 14.7401 11.4869 14.6561 10.6411C14.5721 9.79535 14.197 9.00498 13.595 8.40501C13.2112 8.02148 12.7472 7.72782 12.2363 7.54515C11.7255 7.36249 11.1804 7.29537 10.6405 7.34862C10.1006 7.40188 9.57916 7.57418 9.11381 7.85314C8.64846 8.13209 8.25075 8.51075 7.94931 8.96186C7.64787 9.41297 7.45019 9.9253 7.37052 10.462C7.29085 10.9986 7.33116 11.5463 7.48855 12.0655C7.64593 12.5848 7.91649 13.0626 8.28073 13.4647C8.64497 13.8668 9.09383 14.1832 9.59501 14.391ZM7.00201 7.00201C7.52703 6.47698 8.15033 6.06051 8.83631 5.77637C9.52228 5.49222 10.2575 5.34598 11 5.34598C11.7425 5.34598 12.4777 5.49222 13.1637 5.77637C13.8497 6.06051 14.473 6.47698 14.998 7.00201C15.523 7.52703 15.9395 8.15033 16.2237 8.83631C16.5078 9.52228 16.654 10.2575 16.654 11C16.654 11.7425 16.5078 12.4777 16.2237 13.1637C15.9395 13.8497 15.523 14.473 14.998 14.998C13.9377 16.0583 12.4996 16.654 11 16.654C9.50047 16.654 8.06234 16.0583 7.00201 14.998C5.94167 13.9377 5.34598 12.4996 5.34598 11C5.34598 9.50047 5.94167 8.06234 7.00201 7.00201ZM17.908 6.18801C18.0381 6.06527 18.1423 5.91769 18.2143 5.75398C18.2864 5.59027 18.3248 5.41377 18.3274 5.23493C18.33 5.0561 18.2967 4.87855 18.2295 4.71281C18.1623 4.54708 18.0624 4.39651 17.936 4.27004C17.8095 4.14357 17.6589 4.04376 17.4932 3.97652C17.3275 3.90928 17.1499 3.87598 16.9711 3.87859C16.7922 3.88119 16.6157 3.91966 16.452 3.9917C16.2883 4.06374 16.1407 4.1679 16.018 4.298C15.7793 4.55103 15.6486 4.88713 15.6537 5.23493C15.6588 5.58274 15.7992 5.91488 16.0452 6.16085C16.2911 6.40681 16.6233 6.54723 16.9711 6.5523C17.3189 6.55737 17.655 6.42669 17.908 6.18801Z" fill="#FDFDFD"/>
</svg>
